<?xml version="1.0" encoding="utf-8"?>
<!-- Generator: Adobe Illustrator 21.0.2, SVG Export Plug-In . SVG Version: 6.00 Build 0)  -->
<svg version="1.1" id="Layer_1" xmlns="http://www.w3.org/2000/svg" xmlns:xlink="http://www.w3.org/1999/xlink" x="0px" y="0px"
	 viewBox="0 0 104 104" style="enable-background:new 0 0 104 104;" xml:space="preserve">
<g>
	<path d="M50.8,58.5l2.5-2.5c0.7,1.1,1.1,2.4,1.1,3.7c0,1.9-0.7,3.6-2,4.9L50,67c-1.3,1.3-3,2-4.9,2s-3.6-0.7-4.9-2l-3.1-3.1
		c-2.7-2.7-2.7-7.1,0-9.8l2.3-2.3c1.3-1.3,3.1-2,4.9-2c1.4,0,2.6,0.4,3.7,1.1l-2.5,2.5c-0.4-0.1-0.8-0.2-1.3-0.2
		c-1,0-1.9,0.4-2.6,1.1l-2.3,2.3c-1.4,1.4-1.4,3.7,0,5.1l3.1,3.1c0.7,0.7,1.6,1.1,2.6,1.1s1.9-0.4,2.6-1.1l2.3-2.3
		C51,61.3,51.2,59.8,50.8,58.5z M58.8,47.5l-2.4-2.4L45,56.7l2.4,2.4L58.8,47.5z M66.9,50l-2.3,2.3c-1.3,1.3-3.1,2-4.9,2
		c-1.3,0-2.6-0.4-3.7-1.1l2.5-2.5c0.4,0.1,0.8,0.2,1.2,0.2c1,0,1.9-0.4,2.6-1.1l2.3-2.3c1.4-1.4,1.4-3.7,0-5.1l-3.1-3.1
		c-0.7-0.7-1.6-1.1-2.6-1.1s-1.9,0.4-2.6,1.1L54,41.6c-0.7,0.7-1.1,1.6-1.1,2.6c0,0.4,0.1,0.9,0.2,1.2l-2.5,2.5
		c-0.7-1.1-1.1-2.4-1.1-3.7c0-1.9,0.7-3.6,2-4.9L54,37c1.3-1.3,3.1-2,4.9-2c1.9,0,3.6,0.7,4.9,2l3.1,3.1
		C69.7,42.8,69.7,47.3,66.9,50z"/>
</g>
</svg>
