<?xml version="1.0" encoding="utf-8"?>
<!-- Generator: Adobe Illustrator 21.0.2, SVG Export Plug-In . SVG Version: 6.00 Build 0)  -->
<svg version="1.1" id="Layer_1" xmlns="http://www.w3.org/2000/svg" xmlns:xlink="http://www.w3.org/1999/xlink" x="0px" y="0px"
	 viewBox="0 0 104 104" style="enable-background:new 0 0 104 104;" xml:space="preserve">
<g>
	<path d="M77.9,52.1c0-0.3-0.4-0.8-0.8-1.2c-1-1-3.3-1.6-6.8-1.6c-2.4,0-5.2,0.2-8.2,0.6c-1.3-0.8-2.7-1.6-3.8-2.6
		c-2.9-2.7-5.4-6.5-6.9-10.7c0.1-0.4,0.2-0.7,0.3-1.1c0,0,1.6-9.4,1.2-12.5c-0.1-0.4-0.1-0.6-0.2-0.9l-0.1-0.4
		c-0.4-1-1.3-2.1-2.7-2.1h-0.8c-1.5,0-2.8,0.8-3.1,2c-1,3.7,0,9.2,1.9,16.3l-0.5,1.2c-1.3,3.3-3,6.5-4.5,9.4l-0.2,0.4
		c-1.6,3-3,5.6-4.2,7.8L37,57.4c-0.1,0.1-2.4,1.2-2.9,1.6c-4.5,2.7-7.5,5.8-8,8.2c-0.2,0.8,0,1.8,0.8,2.2l1.3,0.6
		c0.6,0.3,1.1,0.4,1.7,0.4c3.2,0,6.9-4,12.1-13c5.9-1.9,12.7-3.5,18.6-4.4c4.5,2.5,10,4.3,13.5,4.3c0.6,0,1.2-0.1,1.6-0.2
		c0.7-0.2,1.2-0.5,1.6-1.1C78,55,78.1,53.6,77.9,52.1z M29.2,68c0.6-1.6,2.9-4.8,6.3-7.6c0.2-0.2,0.7-0.7,1.2-1.1
		C33.1,65,30.7,67.3,29.2,68z M49.5,21.2c1,0,1.6,2.6,1.7,5c0,2.4-0.5,4.1-1.2,5.4c-0.6-1.9-0.9-4.8-0.9-6.8
		C49,24.9,49,21.2,49.5,21.2z M43.4,54.5c0.7-1.3,1.5-2.6,2.2-4.1c1.9-3.5,3-6.3,3.9-8.6c1.8,3.2,3.9,5.9,6.5,8
		c0.3,0.3,0.7,0.5,1,0.8C51.9,51.8,47.4,53,43.4,54.5z M76.1,54.3c-0.3,0.2-1.2,0.3-1.8,0.3c-1.9,0-4.2-0.9-7.5-2.3
		c1.3-0.1,2.4-0.1,3.4-0.1c1.9,0,2.4,0,4.3,0.5C76.4,53.1,76.5,54.1,76.1,54.3z"/>
	<path d="M42.8,74.2h-4v11.4h2.6v-4H43c0.8,0,2-0.1,2.9-1c0.5-0.5,1-1.3,1-2.7c0-0.8-0.1-1.9-1.1-2.8C44.9,74.3,43.8,74.2,42.8,74.2
		z M43.7,79c-0.4,0.4-1,0.4-1.4,0.4h-0.9h-0.1v-3h0.9c0.5,0,1.1,0,1.5,0.4c0.2,0.2,0.4,0.6,0.4,1.1S43.9,78.8,43.7,79z"/>
	<path d="M52.1,74.2h-3.6v11.4h3.7c1,0,2.9-0.1,4.5-1.7c0.9-0.9,1.5-2.2,1.5-4c0-1.8-0.6-3.1-1.6-4.1C55.2,74.4,53.6,74.2,52.1,74.2
		z M54.5,82.5c-0.9,0.8-2.1,0.8-2.6,0.8h-0.7v-7h0.7c0.8,0,1.9,0.1,2.8,1c0.4,0.5,0.9,1.3,0.9,2.5S55.1,82,54.5,82.5z"/>
	<polygon points="60.2,85.5 62.8,85.5 62.8,80.8 66.2,80.8 66.2,78.6 62.8,78.6 62.8,76.4 66.5,76.4 66.5,74.2 60.2,74.2 	"/>
</g>
</svg>
